<?xml version="1.0" encoding="iso-8859-1"?>
<!-- Generator: Adobe Illustrator 19.0.0, SVG Export Plug-In . SVG Version: 6.00 Build 0)  -->
<svg version="1.1" id="Layer_1" xmlns="http://www.w3.org/2000/svg" xmlns:xlink="http://www.w3.org/1999/xlink" x="0px" y="0px"
	 viewBox="0 0 511.988 511.988" style="enable-background:new 0 0 511.988 511.988;" xml:space="preserve">
<polygon style="fill:#FB6D51;" points="181.703,106.619 42.661,233.755 42.661,426.648 319.996,426.617 319.996,236.239 "/>
<rect x="149.704" y="277.273" style="fill:#434A54;" width="63.998" height="128.03"/>
<g>
	<path style="fill:#646C77;" d="M10.662,266.614c-2.734,0-5.453-1.047-7.547-3.141c-4.156-4.172-4.156-10.922,0.016-15.078
		L174.157,99.072c4.172-4.172,10.937-4.156,15.093,0.016c4.156,4.156,4.156,10.921-0.016,15.077L18.209,263.489
		C16.115,265.567,13.396,266.614,10.662,266.614z"/>
	<path style="fill:#646C77;" d="M351.994,266.614c-2.734,0-5.469-1.047-7.547-3.141L174.141,114.149
		c-4.156-4.172-4.141-10.921,0.016-15.077c4.172-4.172,10.937-4.156,15.093,0.016l170.291,149.323
		c4.156,4.172,4.156,10.922-0.016,15.078C357.447,265.567,354.713,266.614,351.994,266.614z"/>
</g>
<path style="fill:#E8563F;" d="M330.652,426.648H32.005c-5.891,0-10.672-4.75-10.672-10.656s4.781-10.656,10.672-10.656h298.647
	c5.891,0,10.67,4.75,10.67,10.656S336.543,426.648,330.652,426.648z"/>
<path style="fill:#FECD57;" d="M468.615,225.865c-58.652-65.701-36.904-140.527-36.904-140.527
	c-89.357,26.874-142.73,94.888-133.324,181.917c0,0-15.266-6.625-39.357-20.641c-18.859,135.035,53.248,180.034,138.777,180.034
	C483.318,426.648,564.629,333.4,468.615,225.865z"/>
<g>
	<path style="fill:#F5BA45;" d="M277.06,267.255c-0.391-3.719-0.672-7.406-0.859-11.047c-5.016-2.688-10.781-5.875-17.172-9.594
		c-0.516,3.766-0.969,7.453-1.359,11.078C269.904,264.145,277.06,267.255,277.06,267.255z"/>
	<path style="fill:#F5BA45;" d="M468.615,225.865c-58.652-65.701-36.904-140.527-36.904-140.527c-8,2.406-15.701,5.141-23.107,8.188
		c-3.688,21.171-8.344,79.685,38.668,132.34c92.701,103.816,20.125,194.314-61.949,200.471c4.125,0.219,8.281,0.313,12.484,0.313
		C483.318,426.648,564.629,333.4,468.615,225.865z"/>
</g>
<g>
</g>
<g>
</g>
<g>
</g>
<g>
</g>
<g>
</g>
<g>
</g>
<g>
</g>
<g>
</g>
<g>
</g>
<g>
</g>
<g>
</g>
<g>
</g>
<g>
</g>
<g>
</g>
<g>
</g>
</svg>
